# File created by Blade
# Date/Time:  Thu Jan 22 16:16:06 2015
# Frame Rate: 120.000 fps
#------------------------------------------------------
:FULLY-SPECIFIED
:DEGREES
557
root -1.095513 33.769918 -6.197417 55.043301 -34.255271 -1.894429
RightUpLeg -83.897475 -3.092844 -19.701725
RightLeg 27.929876 -0.000000 -0.000000
RightFoot -6.853544 -11.914114 26.984479
RightToeBase 12.378934 -0.000000 -0.000000
LeftUpLeg -46.201642 40.309710 -4.957219
LeftLeg -6.008715 -0.000000 0.000000
LeftFoot -1.108532 19.294291 -40.811645
LeftToeBase 11.994101 -0.000000 -0.000000
Spine 77.251626 -13.541308 -3.469450
RightShoulder 11.957312 15.119346 -37.367026
RightArm 60.850881 30.124389 29.773777
RightForeArm -13.231159 -0.000000 27.947190
RightHand 13.409175 -0.000000 -20.132364
RightHandThumb1 -24.326973 -0.000000 -32.862282
LeftShoulder 6.759449 -13.449086 47.902346
LeftArm 72.366129 -26.718087 -38.516896
LeftForeArm 72.481930 0.000000 15.541375
LeftHand -20.153027 -0.000000 13.596850
LeftHandThumb1 -26.253704 0.000000 33.147579
Head -5.069114 18.651169 5.008387
558
root -1.096433 33.771016 -6.191236 55.133517 -34.263751 -1.919316
RightUpLeg -83.986103 -3.097995 -19.700782
RightLeg 27.973475 -0.000000 -0.000000
RightFoot -6.861621 -11.937951 27.050171
RightToeBase 12.375869 -0.000000 -0.000000
LeftUpLeg -46.243330 40.285445 -4.949361
LeftLeg -6.017275 -0.000000 0.000000
LeftFoot -1.147589 19.328515 -40.867819
LeftToeBase 12.019762 -0.000000 -0.000000
Spine 77.253762 -13.514705 -3.366353
RightShoulder 11.951545 15.033456 -37.410244
RightArm 60.770305 30.146834 29.698981
RightForeArm -13.191247 -0.000000 27.897938
RightHand 13.343904 0.000000 -21.200872
RightHandThumb1 -24.326973 -0.000000 -32.862282
LeftShoulder 6.688057 -13.466864 47.924695
LeftArm 72.266376 -26.631825 -38.147171
LeftForeArm 72.326134 -0.000000 15.615685
LeftHand -20.201218 -0.000000 13.464561
LeftHandThumb1 -26.253704 0.000000 33.147579
Head -4.972548 18.500838 4.957319
559
root -1.093071 33.770120 -6.183799 55.194115 -34.282307 -1.893070
RightUpLeg -84.056316 -3.139194 -19.744790
RightLeg 28.007061 -0.000000 -0.000000
RightFoot -6.845916 -11.966377 27.061668
RightToeBase 12.424446 -0.000000 -0.000000
LeftUpLeg -46.267448 40.218881 -4.963970
LeftLeg -6.040230 -0.000000 0.000000
LeftFoot -1.207196 19.381393 -40.923517
LeftToeBase 11.994500 -0.000000 -0.000000
Spine 77.230536 -13.498700 -3.283366
RightShoulder 11.946188 14.956534 -37.421310
RightArm 60.725532 30.214651 29.755618
RightForeArm -13.100440 -0.000000 27.933865
RightHand 13.453741 -0.000000 -20.998860
RightHandThumb1 -24.326973 -0.000000 -32.862282
LeftShoulder 6.626087 -13.521603 47.979835
LeftArm 72.275435 -26.543247 -38.031409
LeftForeArm 72.393608 -0.000000 15.674198
LeftHand -20.628742 -0.000000 13.596462
LeftHandThumb1 -26.253704 0.000000 33.147579
Head -4.945567 18.423421 4.977882
560
root -1.089534 33.769288 -6.177790 55.237601 -34.297250 -1.872524
RightUpLeg -84.121228 -3.176720 -19.751890
RightLeg 28.050243 -0.000000 -0.000000
RightFoot -6.923522 -11.851324 27.234696
RightToeBase 12.631328 -0.000000 -0.000000
LeftUpLeg -46.287442 40.171337 -4.976808
LeftLeg -6.050430 -0.000000 0.000000
LeftFoot -1.241590 19.408566 -40.974092
LeftToeBase 11.990454 -0.000000 -0.000000
Spine 77.200160 -13.486333 -3.223931
RightShoulder 11.999084 14.917033 -37.425556
RightArm 60.596950 30.229372 29.730573
RightForeArm -12.885772 -0.000000 27.967554
RightHand 13.593585 -0.000000 -21.352785
RightHandThumb1 -24.326973 -0.000000 -32.862282
LeftShoulder 6.570523 -13.549786 48.022705
LeftArm 72.301618 -26.449167 -37.880976
LeftForeArm 72.353813 -0.000000 15.668003
LeftHand -20.826040 -0.000000 13.607402
LeftHandThumb1 -26.253704 0.000000 33.147579
Head -4.872409 18.285589 5.079072
561
root -1.085965 33.767583 -6.170841 55.243117 -34.300815 -1.840263
RightUpLeg -84.145053 -3.218055 -19.767784
RightLeg 28.082918 -0.000000 -0.000000
RightFoot -6.892159 -11.901611 27.162631
RightToeBase 12.486117 -0.000000 -0.000000
LeftUpLeg -46.262874 40.113327 -4.961779
LeftLeg -6.070566 -0.000000 0.000000
LeftFoot -1.281475 19.440915 -41.040172
LeftToeBase 11.942984 -0.000000 -0.000000
Spine 77.186905 -13.481485 -3.171363
RightShoulder 12.053780 14.879660 -37.407653
RightArm 60.477576 30.226458 29.674984
RightForeArm -12.783672 -0.000000 27.964914
RightHand 13.676885 -0.000000 -21.849260
RightHandThumb1 -24.326973 -0.000000 -32.862282
LeftShoulder 6.525347 -13.577843 48.087525
LeftArm 72.365134 -26.384282 -37.868789
LeftForeArm 72.373568 0.000000 15.689887
LeftHand -20.886091 -0.000000 13.481767
LeftHandThumb1 -26.253704 0.000000 33.147579
Head -4.766070 18.310746 5.107186
562
root -1.082610 33.766581 -6.164833 55.248317 -34.306614 -1.806444
RightUpLeg -84.182506 -3.257329 -19.774508
RightLeg 28.134486 -0.000000 -0.000000
RightFoot -6.934459 -11.828117 27.254917
RightToeBase 12.535392 -0.000000 -0.000000
LeftUpLeg -46.235422 40.054565 -4.944627
LeftLeg -6.089424 -0.000000 0.000000
LeftFoot -1.304337 19.465858 -41.079083
LeftToeBase 11.926412 -0.000000 -0.000000
Spine 77.162684 -13.458778 -3.119153
RightShoulder 12.069191 14.824384 -37.355495
RightArm 60.430387 30.228931 29.656423
RightForeArm -12.724416 0.000000 27.953748
RightHand 13.709453 0.000000 -22.204801
RightHandThumb1 -24.326973 -0.000000 -32.862282
LeftShoulder 6.476070 -13.637908 48.176070
LeftArm 72.454039 -26.299781 -37.928788
LeftForeArm 72.496782 0.000000 15.699523
LeftHand -20.967782 -0.000000 13.444318
LeftHandThumb1 -26.253704 0.000000 33.147579
Head -4.671627 18.207527 5.123130
563
root -1.078356 33.765579 -6.158665 55.252166 -34.314024 -1.784727
RightUpLeg -84.209888 -3.289418 -19.768728
RightLeg 28.178087 -0.000000 -0.000000
RightFoot -6.964838 -11.779557 27.316227
RightToeBase 12.610117 -0.000000 -0.000000
LeftUpLeg -46.237336 40.040018 -4.974098
LeftLeg -6.107519 -0.000000 0.000000
LeftFoot -1.300858 19.453574 -41.110490
LeftToeBase 11.911849 -0.000000 -0.000000
Spine 77.087878 -13.458436 -3.058422
RightShoulder 12.151132 14.712506 -37.328746
RightArm 60.391127 30.272686 29.631557
RightForeArm -12.695427 -0.000000 27.906589
RightHand 13.751009 -0.000000 -22.356856
RightHandThumb1 -24.326973 -0.000000 -32.862282
LeftShoulder 6.534608 -13.695168 48.177595
LeftArm 72.452292 -26.242773 -37.940011
LeftForeArm 72.510902 -0.000000 15.787121
LeftHand -20.992221 0.000000 13.225282
LeftHandThumb1 -26.253704 0.000000 33.147579
Head -4.437800 18.267215 5.297041
564
root -1.073540 33.764132 -6.152779 55.205409 -34.296818 -1.740085
RightUpLeg -84.186436 -3.331480 -19.791006
RightLeg 28.215115 -0.000000 -0.000000
RightFoot -6.973380 -11.793639 27.348498
RightToeBase 12.541857 -0.000000 -0.000000
LeftUpLeg -46.181070 39.984663 -4.945677
LeftLeg -6.123606 -0.000000 0.000000
LeftFoot -1.329020 19.463521 -41.155377
LeftToeBase 11.931988 -0.000000 -0.000000
Spine 77.044399 -13.475604 -2.999926
RightShoulder 12.211034 14.611574 -37.310104
RightArm 60.362095 30.309735 29.646540
RightForeArm -12.737670 0.000000 27.861063
RightHand 13.750862 0.000000 -22.392795
RightHandThumb1 -24.326973 -0.000000 -32.862282
LeftShoulder 6.591763 -13.770598 48.209822
LeftArm 72.443505 -26.180923 -37.953398
LeftForeArm 72.658650 -0.000000 15.841967
LeftHand -20.945800 -0.000000 12.870607
LeftHandThumb1 -26.253704 0.000000 33.147579
Head -4.275867 18.283833 5.367400
565
root -1.069577 33.763304 -6.148906 55.168645 -34.287965 -1.716082
RightUpLeg -84.172076 -3.346407 -19.812103
RightLeg 28.252775 -0.000000 -0.000000
RightFoot -7.024918 -11.769191 27.471269
RightToeBase 12.614087 -0.000000 -0.000000
LeftUpLeg -46.126849 39.949747 -4.911935
LeftLeg -6.134486 -0.000000 0.000000
LeftFoot -1.332215 19.464624 -41.153257
LeftToeBase 11.889012 -0.000000 -0.000000
Spine 76.993648 -13.480476 -2.969491
RightShoulder 12.275662 14.565658 -37.284016
RightArm 60.320470 30.274582 29.615703
RightForeArm -12.662067 0.000000 27.794578
RightHand 13.769122 -0.000000 -22.491799
RightHandThumb1 -24.326973 -0.000000 -32.862282
LeftShoulder 6.624310 -13.819433 48.230635
LeftArm 72.457089 -26.119110 -37.970874
LeftForeArm 72.848828 -0.000000 15.914215
LeftHand -20.991167 -0.000000 12.356432
LeftHandThumb1 -26.253704 0.000000 33.147579
Head -4.154719 18.319043 5.378918
566
root -1.065509 33.762023 -6.145450 55.087679 -34.275812 -1.677794
RightUpLeg -84.124067 -3.358635 -19.847896
RightLeg 28.303690 -0.000000 -0.000000
RightFoot -7.071649 -11.808650 27.547675
RightToeBase 12.651435 -0.000000 -0.000000
LeftUpLeg -46.025911 39.907317 -4.851996
LeftLeg -6.145189 -0.000000 0.000000
LeftFoot -1.347423 19.469466 -41.192546
LeftToeBase 11.884690 -0.000000 -0.000000
Spine 76.988075 -13.482103 -2.971093
RightShoulder 12.301993 14.527634 -37.263487
RightArm 60.336885 30.242179 29.651471
RightForeArm -12.603200 -0.000000 27.728263
RightHand 13.748075 0.000000 -22.555545
RightHandThumb1 -24.326973 -0.000000 -32.862282
LeftShoulder 6.619106 -13.898094 48.329084
LeftArm 72.455694 -26.025796 -38.068021
LeftForeArm 73.111943 -0.000000 15.994293
LeftHand -20.912924 0.000000 11.942214
LeftHandThumb1 -26.253704 0.000000 33.147579
Head -4.126182 18.134004 5.275846
567
root -1.061937 33.762415 -6.142365 55.028276 -34.260873 -1.646766
RightUpLeg -84.081101 -3.358589 -19.903677
RightLeg 28.327721 -0.000000 -0.000000
RightFoot -7.129404 -11.848868 27.594263
RightToeBase 12.769082 -0.000000 -0.000000
LeftUpLeg -45.973302 39.880951 -4.833548
LeftLeg -6.145805 -0.000000 0.000000
LeftFoot -1.352315 19.470520 -41.217210
LeftToeBase 11.895304 -0.000000 -0.000000
Spine 76.947934 -13.495215 -2.975659
RightShoulder 12.333689 14.495014 -37.237666
RightArm 60.388166 30.192522 29.687503
RightForeArm -12.644955 -0.000000 27.661813
RightHand 13.619059 -0.000000 -22.516814
RightHandThumb1 -24.326973 -0.000000 -32.862282
LeftShoulder 6.632712 -13.917794 48.387014
LeftArm 72.458250 -25.952907 -38.084894
LeftForeArm 73.191494 -0.000000 16.047295
LeftHand -20.797620 -0.000000 11.435568
LeftHandThumb1 -26.253704 0.000000 33.147579
Head -4.075947 18.080833 5.280405
568
root -1.058321 33.761735 -6.138674 54.947759 -34.241789 -1.620795
RightUpLeg -84.007792 -3.347824 -19.961849
RightLeg 28.341808 -0.000000 -0.000000
RightFoot -7.138699 -11.959847 27.590344
RightToeBase 12.665529 -0.000000 -0.000000
LeftUpLeg -45.895726 39.875015 -4.807314
LeftLeg -6.167643 -0.000000 0.000000
LeftFoot -1.318146 19.450063 -41.191133
LeftToeBase 11.868029 -0.000000 -0.000000
Spine 76.917427 -13.519857 -2.990517
RightShoulder 12.378596 14.448469 -37.244509
RightArm 60.454378 30.152801 29.738606
RightForeArm -12.636298 -0.000000 27.569614
RightHand 13.584312 0.000000 -22.472970
RightHandThumb1 -24.326973 -0.000000 -32.862282
LeftShoulder 6.673037 -13.961842 48.428326
LeftArm 72.382484 -25.854669 -38.026417
LeftForeArm 73.104347 -0.000000 16.097041
LeftHand -20.912709 -0.000000 11.504025
LeftHandThumb1 -26.253704 0.000000 33.147579
Head -4.018649 18.129087 5.272553
